<?xml version="1.0" encoding="utf-8"?>
<!-- Generator: Adobe Illustrator 16.0.0, SVG Export Plug-In . SVG Version: 6.00 Build 0)  -->
<!DOCTYPE svg PUBLIC "-//W3C//DTD SVG 1.1//EN" "http://www.w3.org/Graphics/SVG/1.1/DTD/svg11.dtd">
<svg version="1.1" id="Layer_1" xmlns="http://www.w3.org/2000/svg" xmlns:xlink="http://www.w3.org/1999/xlink" x="0px" y="0px"
	 width="319px" height="37px" viewBox="0 0 319 37" enable-background="new 0 0 319 37" xml:space="preserve">
<g>
	<linearGradient id="SVGID_1_" gradientUnits="userSpaceOnUse" x1="177.0117" y1="24.6494" x2="196.3389" y2="24.6494">
		<stop  offset="0" style="stop-color:#27AAE1"/>
		<stop  offset="1" style="stop-color:#262262"/>
	</linearGradient>
	<polygon fill="url(#SVGID_1_)" points="186.734,32.671 177.012,32.671 186.615,16.628 196.339,16.628 	"/>
	<linearGradient id="SVGID_2_" gradientUnits="userSpaceOnUse" x1="191.1104" y1="24.6494" x2="210.4395" y2="24.6494">
		<stop  offset="0" style="stop-color:#27AAE1"/>
		<stop  offset="1" style="stop-color:#262262"/>
	</linearGradient>
	<polygon fill="url(#SVGID_2_)" points="200.832,32.671 191.11,32.671 200.714,16.628 210.439,16.628 	"/>
	<linearGradient id="SVGID_3_" gradientUnits="userSpaceOnUse" x1="205.209" y1="24.6494" x2="224.5361" y2="24.6494">
		<stop  offset="0" style="stop-color:#27AAE1"/>
		<stop  offset="1" style="stop-color:#262262"/>
	</linearGradient>
	<polygon fill="url(#SVGID_3_)" points="214.932,32.671 205.209,32.671 214.813,16.628 224.536,16.628 	"/>
</g>
<g>
	<path fill="#BE1E2D" d="M39.438,1.469h9.459C49.18,2.05,49.32,2.631,49.32,3.212c0,0.564-0.103,0.953-0.305,1.164
		c-0.205,0.211-0.533,0.318-0.989,0.318h-1.129c-0.878,3.34-2.133,8.453-3.764,15.341c-1.631,6.885-2.792,10.939-3.482,12.164
		c-0.691,1.223-2.212,1.837-4.564,1.837c-2.776,0-4.302-0.089-4.576-0.261c-0.276-0.172-1.036-4.057-2.283-11.658
		c-1.247-7.6-1.909-11.399-1.988-11.399s-0.71,3.274-1.894,9.821c-1.185,6.55-2.122,10.436-2.812,11.66
		c-0.691,1.223-2.211,1.837-4.564,1.837c-2.494,0-3.875-0.089-4.141-0.261c-0.268-0.172-1.306-4.215-3.119-12.129
		C7.898,13.734,6.45,8.083,5.369,4.694H3.393c-0.267-0.69-0.4-1.35-0.4-1.977c0-0.44,0.119-0.758,0.353-0.954
		c0.236-0.195,0.58-0.295,1.035-0.295h11.694c0.267,0.581,0.4,1.162,0.4,1.743c0,0.564-0.102,0.953-0.307,1.164
		c-0.203,0.211-0.534,0.318-0.987,0.318h-1.154c0.173,2.008,0.847,6.27,2.024,12.787s1.914,9.775,2.212,9.775
		c0.297,0,1.176-4.21,2.635-12.633c1.459-8.423,2.318-12.722,2.577-12.894c0.258-0.172,2.059-0.261,5.398-0.261
		c1.178,0,1.99,0.233,2.436,0.695c0.447,0.462,1.369,4.76,2.765,12.894c1.397,8.132,2.24,12.198,2.53,12.198
		c0.291,0,0.977-3.222,2.06-9.669c1.082-6.447,1.678-10.744,1.788-12.894h-1.977c-0.282-0.69-0.423-1.35-0.423-1.977
		c0-0.44,0.118-0.758,0.352-0.954C38.639,1.569,38.983,1.469,39.438,1.469z"/>
	<path fill="#BE1E2D" d="M51.297,19.023c0-6.116,1.423-10.65,4.271-13.599C58.414,2.473,62.3,1,67.227,1
		c4.644,0,8.168,1.078,10.576,3.234c2.407,2.156,3.612,6.09,3.612,11.8c0,6.117-1.425,10.65-4.271,13.599
		c-2.847,2.948-6.803,4.424-11.87,4.424c-4.519,0-7.977-1.079-10.376-3.236C52.497,28.665,51.297,24.734,51.297,19.023z
		 M59.391,16.74c0,5.036,0.635,8.428,1.905,10.177c1.271,1.748,3.042,2.624,5.318,2.624c2.386,0,4.095-0.852,5.13-2.553
		c1.034-1.701,1.553-4.591,1.553-8.669c0-5.178-0.632-8.605-1.896-10.284c-1.262-1.678-3.038-2.517-5.329-2.517
		c-2.385,0-4.094,0.851-5.13,2.554C59.908,9.772,59.391,12.662,59.391,16.74z"/>
	<path fill="#BE1E2D" d="M97.226,30.363h3.412c0.266,0.564,0.399,1.146,0.399,1.742c0,0.55-0.103,0.933-0.307,1.151
		c-0.202,0.221-0.525,0.331-0.964,0.331H86.542c-0.282-0.69-0.422-1.358-0.422-1.999c0-0.425,0.116-0.734,0.353-0.93
		c0.235-0.197,0.581-0.295,1.035-0.295h2.188c0.079-2.007,0.116-7.261,0.116-15.763c0-4.597-0.037-7.897-0.116-9.906h-3.13
		c-0.268-0.69-0.4-1.35-0.4-1.977c0-0.44,0.114-0.758,0.343-0.954c0.228-0.195,0.567-0.295,1.022-0.295h12.212
		c4.894,0,8.389,0.684,10.482,2.048c2.093,1.366,3.141,3.545,3.141,6.541c0,4.141-2.564,7.013-7.695,8.611
		c1.288,0.534,2.379,1.361,3.271,2.484c0.895,1.119,1.836,2.69,2.823,4.705c0.989,2.015,1.8,3.269,2.437,3.764
		c0.634,0.495,1.556,0.741,2.764,0.741c0.424,1.397,0.376,2.362-0.14,2.893c-0.52,0.535-1.828,0.802-3.929,0.802
		c-2.45,0-4.14-0.263-5.073-0.787c-0.932-0.528-1.776-2.127-2.529-4.801c-0.752-2.674-1.564-4.658-2.436-5.953
		c-0.869-1.294-2.065-1.94-3.587-1.94c-0.815,0-1.538,0.077-2.164,0.235C97.124,25.486,97.163,28.67,97.226,30.363z M97.108,16.74
		h1.905c2.023,0,3.572-0.38,4.647-1.141c1.072-0.759,1.611-1.973,1.611-3.634c0-2.15-0.53-3.683-1.588-4.601
		c-1.06-0.918-2.404-1.376-4.035-1.376c-0.989,0-1.796,0.077-2.424,0.234c-0.078,0.988-0.117,3.788-0.117,8.4V16.74z"/>
	<path fill="#BE1E2D" d="M130.659,29.658h0.568c5.254,0,9.425-0.619,12.515-1.859c0.692,1.036,1.036,2.159,1.036,3.365
		c0,0.865-0.32,1.483-0.964,1.859c-0.646,0.376-1.944,0.565-3.906,0.565l-19.483,0.022c-0.282-0.69-0.423-1.354-0.423-1.998
		c0-0.425,0.117-0.735,0.354-0.929c0.233-0.198,0.579-0.295,1.035-0.295h1.717c0.094-2.024,0.141-7.285,0.141-15.787
		c0-4.597-0.055-7.897-0.165-9.906h-2.658c-0.282-0.69-0.423-1.35-0.423-1.977c0-0.44,0.117-0.758,0.354-0.954
		c0.233-0.195,0.579-0.295,1.035-0.295h12.401c0.266,0.581,0.399,1.162,0.399,1.743c0,0.564-0.101,0.953-0.307,1.164
		c-0.204,0.211-0.524,0.318-0.966,0.318h-2.282c-0.078,2.008-0.116,5.317-0.116,9.929C130.521,23.11,130.567,28.122,130.659,29.658z
		"/>
	<path fill="#BE1E2D" d="M148.542,1.469h9.93c7.09,0,11.952,1.127,14.588,3.376c2.635,2.252,3.952,5.989,3.952,11.212
		c0,5.788-1.362,10.159-4.081,13.108c-2.723,2.949-7.337,4.422-13.847,4.422l-11.508,0.022c-0.281-0.69-0.424-1.354-0.424-1.998
		c0-0.425,0.119-0.735,0.354-0.929c0.237-0.198,0.581-0.295,1.035-0.295h1.719c0.095-2.024,0.142-7.285,0.142-15.787
		c0-4.597-0.047-7.897-0.142-9.906h-2.685c-0.281-0.69-0.424-1.35-0.424-1.977c0-0.44,0.119-0.758,0.354-0.954
		C147.744,1.569,148.088,1.469,148.542,1.469z M160.729,5.989c-1.129,0-2.109,0.077-2.939,0.234
		c-0.079,2.197-0.118,7.288-0.118,15.271c0,3.716,0.226,5.909,0.683,6.577c0.454,0.666,1.639,0.999,3.554,0.999
		c2.271,0,4.006-0.743,5.199-2.235c1.191-1.49,1.788-4.485,1.788-8.988c0-4.438-0.704-7.525-2.107-9.259
		C165.384,6.855,163.366,5.989,160.729,5.989z"/>
</g>
<g>
	<path fill="#262262" d="M229.477,16.551h4.864c1.011,1.942,1.985,3.738,2.922,5.395c0.938,1.653,1.896,3.707,2.88,6.154v-5.225
		c0-2.214-0.023-3.804-0.069-4.771h-1.281c-0.127-0.334-0.192-0.652-0.192-0.952c0-0.212,0.06-0.365,0.172-0.458
		c0.112-0.095,0.278-0.143,0.499-0.143h5.098c0.129,0.28,0.192,0.56,0.192,0.838c0,0.272-0.05,0.46-0.148,0.56
		c-0.097,0.103-0.256,0.155-0.474,0.155h-0.988c-0.028,0.967-0.043,2.56-0.043,4.782v7.604c0,0.718-0.083,1.171-0.25,1.362
		c-0.166,0.188-0.604,0.282-1.315,0.282c-1.413,0-2.214-0.053-2.4-0.158c-0.19-0.105-0.946-1.251-2.267-3.435
		c-1.323-2.183-2.545-4.624-3.661-7.321c0,5.199,0.018,8.281,0.057,9.247h1.179c0.127,0.275,0.192,0.553,0.192,0.839
		c0,0.265-0.049,0.449-0.149,0.556c-0.097,0.106-0.253,0.159-0.463,0.159h-5.043c-0.135-0.332-0.205-0.654-0.205-0.963
		c0-0.205,0.058-0.353,0.171-0.448c0.113-0.095,0.278-0.143,0.499-0.143h0.941c0.044-0.966,0.067-3.498,0.067-7.591
		c-0.009-2.214-0.033-3.804-0.078-4.771h-1.169c-0.136-0.334-0.203-0.652-0.203-0.952c0-0.212,0.056-0.365,0.169-0.458
		C229.093,16.599,229.256,16.551,229.477,16.551z"/>
	<path fill="#262262" d="M253.511,16.551h10.314c0.484,0,0.828,0.073,1.036,0.222c0.209,0.146,0.312,0.449,0.312,0.913
		c0,0.559-0.187,1.132-0.557,1.722c-1.586-0.644-3.618-0.965-6.097-0.965h-0.544c-0.045,0.741-0.066,2.25-0.066,4.522h5.712
		c0.127,0.403,0.191,0.817,0.191,1.247c0,0.257-0.045,0.431-0.135,0.517c-0.093,0.087-0.267,0.13-0.521,0.13h-5.247
		c0.007,2.909,0.029,4.665,0.066,5.271h0.941c2.546,0,4.563-0.298,6.05-0.896c0.334,0.5,0.502,1.037,0.502,1.62
		c0,0.416-0.155,0.714-0.466,0.896c-0.311,0.183-0.938,0.271-1.88,0.271l-10.078,0.011c-0.134-0.332-0.203-0.654-0.203-0.963
		c0-0.205,0.057-0.352,0.173-0.446c0.112-0.096,0.277-0.142,0.495-0.142h0.829c0.044-0.975,0.068-3.51,0.068-7.604
		c0-2.214-0.024-3.804-0.068-4.771h-1.294c-0.134-0.334-0.203-0.652-0.203-0.952c0-0.212,0.057-0.365,0.173-0.458
		C253.128,16.599,253.293,16.551,253.511,16.551z"/>
	<path fill="#262262" d="M290.186,16.551h4.556c0.135,0.28,0.203,0.56,0.203,0.838c0,0.272-0.047,0.46-0.147,0.56
		c-0.099,0.103-0.257,0.155-0.474,0.155h-0.546c-0.421,1.608-1.027,4.072-1.811,7.39c-0.79,3.315-1.348,5.27-1.679,5.858
		c-0.333,0.59-1.068,0.883-2.199,0.883c-1.338,0-2.071-0.042-2.205-0.125c-0.134-0.081-0.497-1.954-1.1-5.613
		c-0.601-3.661-0.918-5.492-0.954-5.492c-0.039,0-0.343,1.579-0.915,4.731c-0.571,3.155-1.023,5.027-1.355,5.616
		c-0.33,0.59-1.062,0.883-2.197,0.883c-1.201,0-1.865-0.042-1.994-0.125c-0.129-0.081-0.628-2.029-1.501-5.841
		c-0.872-3.81-1.572-6.533-2.094-8.165h-0.951c-0.128-0.334-0.192-0.652-0.192-0.952c0-0.212,0.058-0.365,0.168-0.458
		c0.115-0.095,0.281-0.143,0.502-0.143h5.632c0.128,0.28,0.193,0.56,0.193,0.838c0,0.272-0.049,0.46-0.146,0.56
		c-0.102,0.103-0.259,0.155-0.476,0.155h-0.556c0.08,0.967,0.406,3.02,0.973,6.16c0.568,3.137,0.923,4.708,1.064,4.708
		c0.143,0,0.567-2.03,1.271-6.086c0.7-4.057,1.114-6.126,1.241-6.209c0.124-0.085,0.992-0.125,2.601-0.125
		c0.567,0,0.955,0.11,1.172,0.333c0.217,0.225,0.659,2.293,1.332,6.212c0.67,3.917,1.078,5.875,1.219,5.875s0.47-1.553,0.99-4.658
		c0.522-3.104,0.809-5.177,0.861-6.21h-0.95c-0.137-0.334-0.207-0.652-0.207-0.952c0-0.212,0.059-0.365,0.172-0.458
		C289.8,16.599,289.966,16.551,290.186,16.551z"/>
	<path fill="#262262" d="M308.603,16.323c1.938,0,3.227,0.114,3.856,0.34c0.63,0.228,0.946,0.671,0.946,1.327
		c0,0.628-0.232,1.189-0.69,1.689c-1.745-0.785-3.262-1.178-4.545-1.178c-0.855,0-1.448,0.146-1.781,0.44
		c-0.33,0.295-0.498,0.723-0.498,1.282c0,0.664,0.209,1.159,0.623,1.484c0.417,0.325,1.255,0.673,2.519,1.043
		c1.586,0.416,2.808,0.941,3.664,1.576c0.857,0.632,1.307,1.668,1.344,3.105c0,1.631-0.588,2.842-1.764,3.631
		c-1.175,0.792-2.887,1.187-5.14,1.187c-1.629,0-2.835-0.122-3.608-0.364c-0.773-0.243-1.162-0.722-1.162-1.439
		c0-0.634,0.265-1.198,0.794-1.688c1.73,0.876,3.351,1.313,4.862,1.313c0.989,0,1.683-0.13,2.073-0.39
		c0.393-0.262,0.588-0.693,0.588-1.297c0-0.709-0.303-1.264-0.915-1.657c-0.613-0.392-1.624-0.788-3.026-1.19
		c-1.496-0.398-2.571-0.955-3.226-1.666c-0.654-0.71-0.979-1.62-0.979-2.731c0-1.517,0.536-2.699,1.614-3.548
		C305.23,16.747,306.713,16.323,308.603,16.323z"/>
</g>
</svg>
