<?xml version="1.0" encoding="utf-8"?>
<!-- Generator: Adobe Illustrator 16.0.0, SVG Export Plug-In . SVG Version: 6.00 Build 0)  -->
<!DOCTYPE svg PUBLIC "-//W3C//DTD SVG 1.1//EN" "http://www.w3.org/Graphics/SVG/1.1/DTD/svg11.dtd">
<svg version="1.1" id="Layer_1" xmlns="http://www.w3.org/2000/svg" xmlns:xlink="http://www.w3.org/1999/xlink" x="0px" y="0px"
	 width="176px" height="66.116px" viewBox="0 0 176 66.116" enable-background="new 0 0 176 66.116" xml:space="preserve">
<g>
	<g>
		<path fill="#BE1E2D" d="M37.437,1.469h9.459c0.282,0.581,0.423,1.162,0.423,1.743c0,0.564-0.103,0.953-0.305,1.164
			c-0.205,0.211-0.533,0.318-0.989,0.318h-1.129c-0.878,3.34-2.133,8.453-3.764,15.341C39.5,26.92,38.34,30.975,37.649,32.199
			c-0.691,1.223-2.212,1.837-4.564,1.837c-2.776,0-4.302-0.089-4.576-0.261c-0.276-0.172-1.036-4.057-2.283-11.658
			c-1.247-7.6-1.909-11.399-1.988-11.399s-0.71,3.274-1.894,9.821c-1.185,6.55-2.122,10.436-2.812,11.66
			c-0.691,1.223-2.211,1.837-4.564,1.837c-2.494,0-3.875-0.089-4.141-0.261c-0.268-0.172-1.306-4.215-3.119-12.129
			C5.897,13.734,4.449,8.083,3.368,4.694H1.392c-0.267-0.69-0.4-1.35-0.4-1.977c0-0.44,0.119-0.758,0.353-0.954
			c0.236-0.195,0.58-0.295,1.035-0.295h11.694c0.267,0.581,0.4,1.162,0.4,1.743c0,0.564-0.102,0.953-0.307,1.164
			c-0.203,0.211-0.534,0.318-0.987,0.318h-1.154c0.173,2.008,0.847,6.27,2.024,12.787s1.914,9.775,2.212,9.775
			c0.297,0,1.176-4.21,2.635-12.633c1.459-8.423,2.318-12.722,2.577-12.894c0.258-0.172,2.059-0.261,5.398-0.261
			c1.178,0,1.99,0.233,2.436,0.695c0.447,0.462,1.369,4.76,2.765,12.894c1.397,8.132,2.24,12.198,2.53,12.198
			c0.291,0,0.977-3.222,2.06-9.669c1.082-6.447,1.678-10.744,1.788-12.894h-1.977c-0.282-0.69-0.423-1.35-0.423-1.977
			c0-0.44,0.118-0.758,0.352-0.954C36.638,1.569,36.982,1.469,37.437,1.469z"/>
		<path fill="#BE1E2D" d="M49.296,19.023c0-6.116,1.423-10.65,4.271-13.599C56.413,2.473,60.299,1,65.225,1
			c4.643,0,8.167,1.078,10.576,3.234c2.407,2.156,3.612,6.09,3.612,11.8c0,6.117-1.425,10.65-4.271,13.599
			c-2.847,2.948-6.803,4.424-11.869,4.424c-4.519,0-7.977-1.079-10.376-3.236C50.496,28.665,49.296,24.734,49.296,19.023z
			 M57.39,16.74c0,5.036,0.635,8.428,1.905,10.177c1.271,1.748,3.042,2.624,5.318,2.624c2.385,0,4.094-0.852,5.129-2.553
			c1.034-1.701,1.553-4.591,1.553-8.669c0-5.178-0.632-8.605-1.896-10.284c-1.262-1.678-3.038-2.517-5.328-2.517
			c-2.385,0-4.094,0.851-5.13,2.554C57.907,9.772,57.39,12.662,57.39,16.74z"/>
		<path fill="#BE1E2D" d="M95.224,30.363h3.412c0.266,0.564,0.399,1.146,0.399,1.742c0,0.55-0.103,0.933-0.307,1.151
			c-0.202,0.221-0.525,0.331-0.964,0.331H84.54c-0.282-0.69-0.422-1.358-0.422-1.999c0-0.425,0.116-0.734,0.353-0.93
			c0.235-0.197,0.581-0.295,1.035-0.295h2.188c0.079-2.007,0.116-7.261,0.116-15.763c0-4.597-0.037-7.897-0.116-9.906h-3.13
			c-0.268-0.69-0.4-1.35-0.4-1.977c0-0.44,0.114-0.758,0.343-0.954c0.228-0.195,0.567-0.295,1.022-0.295h12.212
			c4.894,0,8.389,0.684,10.482,2.048c2.093,1.366,3.141,3.545,3.141,6.541c0,4.141-2.564,7.013-7.695,8.611
			c1.288,0.534,2.379,1.361,3.271,2.484c0.895,1.119,1.836,2.69,2.823,4.705c0.989,2.015,1.8,3.269,2.437,3.764
			c0.634,0.495,1.556,0.741,2.764,0.741c0.424,1.397,0.376,2.362-0.14,2.893c-0.52,0.535-1.828,0.802-3.929,0.802
			c-2.45,0-4.14-0.263-5.073-0.787c-0.932-0.528-1.776-2.127-2.529-4.801c-0.752-2.674-1.564-4.658-2.436-5.953
			c-0.869-1.294-2.065-1.94-3.587-1.94c-0.815,0-1.538,0.077-2.164,0.235C95.122,25.486,95.161,28.67,95.224,30.363z M95.106,16.74
			h1.905c2.023,0,3.572-0.38,4.647-1.141c1.072-0.759,1.611-1.973,1.611-3.634c0-2.15-0.53-3.683-1.588-4.601
			c-1.06-0.918-2.404-1.376-4.035-1.376c-0.989,0-1.796,0.077-2.424,0.234c-0.078,0.988-0.117,3.788-0.117,8.4V16.74z"/>
		<path fill="#BE1E2D" d="M128.657,29.658h0.568c5.254,0,9.425-0.619,12.515-1.859c0.692,1.036,1.036,2.159,1.036,3.365
			c0,0.865-0.32,1.483-0.964,1.859c-0.646,0.376-1.944,0.565-3.906,0.565l-19.483,0.022c-0.282-0.69-0.423-1.354-0.423-1.998
			c0-0.425,0.117-0.735,0.354-0.929c0.233-0.198,0.579-0.295,1.035-0.295h1.717c0.094-2.024,0.141-7.285,0.141-15.787
			c0-4.597-0.055-7.897-0.165-9.906h-2.658C118.141,4.004,118,3.344,118,2.718c0-0.44,0.117-0.758,0.354-0.954
			c0.233-0.195,0.579-0.295,1.035-0.295h12.401c0.266,0.581,0.399,1.162,0.399,1.743c0,0.564-0.101,0.953-0.307,1.164
			c-0.204,0.211-0.524,0.318-0.966,0.318h-2.282c-0.078,2.008-0.116,5.317-0.116,9.929C128.519,23.11,128.565,28.122,128.657,29.658
			z"/>
		<path fill="#BE1E2D" d="M146.54,1.469h9.93c7.09,0,11.952,1.127,14.588,3.376c2.635,2.252,3.952,5.989,3.952,11.212
			c0,5.788-1.362,10.159-4.081,13.108c-2.723,2.949-7.337,4.422-13.847,4.422l-11.508,0.022c-0.281-0.69-0.424-1.354-0.424-1.998
			c0-0.425,0.119-0.735,0.354-0.929c0.237-0.198,0.581-0.295,1.035-0.295h1.719c0.095-2.024,0.142-7.285,0.142-15.787
			c0-4.597-0.047-7.897-0.142-9.906h-2.685c-0.281-0.69-0.424-1.35-0.424-1.977c0-0.44,0.119-0.758,0.354-0.954
			C145.742,1.569,146.086,1.469,146.54,1.469z M158.728,5.989c-1.129,0-2.109,0.077-2.939,0.234
			c-0.079,2.197-0.118,7.288-0.118,15.271c0,3.716,0.226,5.909,0.683,6.577c0.454,0.666,1.639,0.999,3.554,0.999
			c2.271,0,4.006-0.743,5.199-2.235c1.191-1.49,1.788-4.485,1.788-8.988c0-4.438-0.704-7.525-2.107-9.259
			C163.382,6.855,161.364,5.989,158.728,5.989z"/>
	</g>
	<g>
		<path fill="#262262" d="M73.385,46.339h5.413c1.125,2.161,2.21,4.161,3.253,6.003c1.042,1.841,2.11,4.126,3.203,6.849v-5.814
			c0-2.464-0.025-4.234-0.076-5.31h-1.426c-0.142-0.372-0.214-0.726-0.214-1.06c0-0.237,0.064-0.407,0.19-0.51
			c0.125-0.105,0.311-0.158,0.556-0.158h5.674c0.144,0.311,0.214,0.623,0.214,0.933c0,0.303-0.055,0.512-0.165,0.623
			c-0.107,0.115-0.285,0.173-0.528,0.173h-1.098c-0.032,1.076-0.05,2.849-0.05,5.321v8.462c0,0.799-0.092,1.303-0.277,1.516
			c-0.186,0.209-0.672,0.313-1.463,0.313c-1.573,0-2.464-0.059-2.674-0.177c-0.211-0.116-1.052-1.392-2.521-3.821
			c-1.473-2.43-2.831-5.146-4.075-8.149c0,5.786,0.021,9.216,0.064,10.292h1.312c0.142,0.305,0.213,0.616,0.213,0.934
			c0,0.295-0.054,0.5-0.164,0.619c-0.109,0.118-0.281,0.176-0.517,0.176h-5.612c-0.15-0.37-0.228-0.728-0.228-1.071
			c0-0.228,0.063-0.392,0.189-0.5c0.127-0.104,0.311-0.158,0.555-0.158h1.048c0.05-1.076,0.076-3.893,0.076-8.449
			c-0.01-2.464-0.038-4.234-0.088-5.31h-1.301c-0.15-0.372-0.226-0.726-0.226-1.06c0-0.237,0.062-0.407,0.188-0.51
			C72.957,46.392,73.141,46.339,73.385,46.339z"/>
		<path fill="#262262" d="M100.134,46.339h11.478c0.538,0,0.922,0.081,1.153,0.247c0.231,0.163,0.348,0.5,0.348,1.015
			c0,0.623-0.208,1.261-0.619,1.917c-1.765-0.716-4.027-1.074-6.784-1.074h-0.606c-0.05,0.825-0.075,2.503-0.075,5.033h6.357
			c0.143,0.448,0.214,0.909,0.214,1.388c0,0.286-0.051,0.479-0.15,0.574c-0.103,0.098-0.296,0.146-0.581,0.146h-5.84
			c0.009,3.237,0.034,5.191,0.075,5.865h1.047c2.833,0,5.079-0.332,6.734-0.997c0.371,0.556,0.557,1.154,0.557,1.803
			c0,0.462-0.172,0.795-0.518,0.997c-0.346,0.203-1.044,0.302-2.093,0.302l-11.215,0.012c-0.149-0.369-0.226-0.728-0.226-1.072
			c0-0.228,0.063-0.392,0.19-0.497c0.125-0.107,0.31-0.158,0.554-0.158h0.921c0.05-1.085,0.075-3.906,0.075-8.462
			c0-2.464-0.025-4.234-0.075-5.31h-1.439c-0.149-0.372-0.226-0.726-0.226-1.06c0-0.237,0.063-0.407,0.19-0.51
			C99.705,46.392,99.89,46.339,100.134,46.339z"/>
		<path fill="#262262" d="M140.947,46.339h5.07c0.15,0.311,0.226,0.623,0.226,0.933c0,0.303-0.053,0.512-0.164,0.623
			c-0.108,0.115-0.285,0.173-0.528,0.173h-0.606c-0.469,1.789-1.144,4.531-2.016,8.224c-0.877,3.69-1.498,5.864-1.866,6.519
			c-0.372,0.656-1.188,0.983-2.447,0.983c-1.489,0-2.308-0.047-2.454-0.139c-0.149-0.09-0.555-2.174-1.225-6.248
			c-0.667-4.073-1.022-6.112-1.063-6.112c-0.042,0-0.381,1.757-1.016,5.266c-0.637,3.511-1.14,5.595-1.509,6.25
			c-0.368,0.656-1.185,0.983-2.447,0.983c-1.336,0-2.076-0.047-2.218-0.139c-0.145-0.09-0.7-2.258-1.671-6.501
			c-0.972-4.24-1.749-7.271-2.329-9.085h-1.06c-0.143-0.372-0.215-0.726-0.215-1.06c0-0.237,0.063-0.407,0.188-0.51
			c0.127-0.105,0.312-0.158,0.557-0.158h6.269c0.143,0.311,0.214,0.623,0.214,0.933c0,0.303-0.053,0.512-0.161,0.623
			c-0.113,0.115-0.287,0.173-0.53,0.173h-0.618c0.09,1.076,0.452,3.359,1.083,6.855c0.632,3.492,1.026,5.239,1.186,5.239
			c0.158,0,0.631-2.259,1.414-6.773c0.78-4.515,1.24-6.818,1.381-6.91c0.14-0.094,1.104-0.139,2.895-0.139
			c0.63,0,1.064,0.123,1.304,0.371c0.242,0.25,0.734,2.552,1.481,6.913c0.748,4.359,1.202,6.539,1.358,6.539
			c0.155,0,0.522-1.729,1.103-5.184c0.58-3.455,0.899-5.761,0.958-6.91h-1.059c-0.152-0.372-0.229-0.726-0.229-1.06
			c0-0.237,0.065-0.407,0.191-0.51C140.518,46.392,140.703,46.339,140.947,46.339z"/>
		<path fill="#262262" d="M161.443,46.085c2.157,0,3.591,0.127,4.293,0.378c0.701,0.253,1.053,0.746,1.053,1.476
			c0,0.7-0.259,1.324-0.77,1.88c-1.941-0.874-3.629-1.311-5.058-1.311c-0.952,0-1.611,0.162-1.981,0.49
			c-0.368,0.329-0.555,0.804-0.555,1.427c0,0.739,0.232,1.29,0.694,1.651c0.464,0.361,1.396,0.749,2.801,1.16
			c1.766,0.463,3.126,1.048,4.08,1.754c0.952,0.704,1.453,1.856,1.493,3.455c0,1.815-0.653,3.163-1.961,4.041
			c-1.308,0.881-3.213,1.32-5.721,1.32c-1.812,0-3.155-0.136-4.015-0.405c-0.862-0.27-1.294-0.803-1.294-1.601
			c0-0.706,0.295-1.333,0.884-1.879c1.926,0.976,3.729,1.461,5.41,1.461c1.102,0,1.872-0.145,2.307-0.435
			c0.438-0.291,0.656-0.771,0.656-1.442c0-0.79-0.339-1.407-1.02-1.843c-0.683-0.438-1.807-0.878-3.369-1.325
			c-1.664-0.443-2.86-1.062-3.588-1.854c-0.729-0.79-1.09-1.802-1.09-3.04c0-1.688,0.597-3.004,1.797-3.948
			C157.69,46.557,159.34,46.085,161.443,46.085z"/>
	</g>
	<linearGradient id="SVGID_1_" gradientUnits="userSpaceOnUse" x1="7.1382" y1="54.7314" x2="30.4907" y2="54.7314">
		<stop  offset="0" style="stop-color:#27AAE1"/>
		<stop  offset="1" style="stop-color:#262262"/>
	</linearGradient>
	<polygon fill="url(#SVGID_1_)" points="18.886,64.423 7.138,64.423 18.742,45.04 30.491,45.04 	"/>
	<linearGradient id="SVGID_2_" gradientUnits="userSpaceOnUse" x1="24.1724" y1="54.7314" x2="47.5264" y2="54.7314">
		<stop  offset="0" style="stop-color:#27AAE1"/>
		<stop  offset="1" style="stop-color:#262262"/>
	</linearGradient>
	<polygon fill="url(#SVGID_2_)" points="35.92,64.423 24.172,64.423 35.778,45.04 47.526,45.04 	"/>
	<linearGradient id="SVGID_3_" gradientUnits="userSpaceOnUse" x1="41.208" y1="54.7314" x2="64.561" y2="54.7314">
		<stop  offset="0" style="stop-color:#27AAE1"/>
		<stop  offset="1" style="stop-color:#262262"/>
	</linearGradient>
	<polygon fill="url(#SVGID_3_)" points="52.956,64.423 41.208,64.423 52.812,45.04 64.561,45.04 	"/>
</g>
</svg>
