<?xml version="1.0" encoding="utf-8"?>
<!-- Generator: Adobe Illustrator 16.0.0, SVG Export Plug-In . SVG Version: 6.00 Build 0)  -->
<!DOCTYPE svg PUBLIC "-//W3C//DTD SVG 1.1//EN" "http://www.w3.org/Graphics/SVG/1.1/DTD/svg11.dtd">
<svg version="1.1" id="Layer_1" xmlns="http://www.w3.org/2000/svg" xmlns:xlink="http://www.w3.org/1999/xlink" x="0px" y="0px"
	 width="612px" height="792px" viewBox="0 0 612 792" enable-background="new 0 0 612 792" xml:space="preserve">
<g>
	<path fill="#BE1E2D" d="M270.482,463.433h3.976c0.119,0.244,0.178,0.488,0.178,0.732c0,0.237-0.043,0.4-0.128,0.489
		c-0.086,0.089-0.224,0.134-0.416,0.134h-0.475c-0.369,1.403-0.896,3.553-1.582,6.447c-0.686,2.894-1.173,4.598-1.463,5.112
		c-0.291,0.514-0.93,0.771-1.918,0.771c-1.167,0-1.808-0.037-1.923-0.109c-0.116-0.072-0.435-1.705-0.959-4.899
		c-0.524-3.194-0.802-4.791-0.835-4.791s-0.298,1.376-0.796,4.128c-0.498,2.753-0.892,4.386-1.182,4.9
		c-0.291,0.514-0.93,0.771-1.918,0.771c-1.048,0-1.628-0.037-1.74-0.109c-0.112-0.072-0.549-1.771-1.311-5.098
		c-0.761-3.325-1.37-5.7-1.824-7.124h-0.831c-0.112-0.29-0.168-0.567-0.168-0.831c0-0.185,0.05-0.318,0.148-0.4
		c0.099-0.082,0.244-0.124,0.435-0.124h4.915c0.112,0.244,0.168,0.488,0.168,0.732c0,0.237-0.043,0.4-0.129,0.489
		c-0.085,0.089-0.224,0.134-0.415,0.134h-0.485c0.073,0.844,0.356,2.635,0.851,5.374s0.804,4.108,0.93,4.108
		c0.125,0,0.494-1.77,1.107-5.31s0.974-5.347,1.083-5.419c0.108-0.072,0.865-0.109,2.269-0.109c0.495,0,0.836,0.098,1.023,0.292
		c0.188,0.194,0.575,2.001,1.162,5.419s0.941,5.127,1.063,5.127s0.411-1.354,0.865-4.063c0.455-2.71,0.706-4.516,0.751-5.419h-0.831
		c-0.119-0.29-0.178-0.567-0.178-0.831c0-0.185,0.049-0.318,0.148-0.4C270.146,463.475,270.292,463.433,270.482,463.433z"/>
	<path fill="#BE1E2D" d="M275.466,470.81c0-2.57,0.598-4.476,1.795-5.715c1.196-1.24,2.83-1.859,4.9-1.859
		c1.951,0,3.433,0.453,4.445,1.359c1.012,0.906,1.518,2.56,1.518,4.959c0,2.571-0.599,4.477-1.795,5.716
		c-1.197,1.239-2.859,1.859-4.989,1.859c-1.899,0-3.353-0.453-4.361-1.36C275.971,474.862,275.466,473.21,275.466,470.81z
		 M278.868,469.851c0,2.116,0.267,3.542,0.801,4.277c0.534,0.734,1.279,1.103,2.235,1.103c1.002,0,1.721-0.358,2.156-1.073
		s0.653-1.93,0.653-3.644c0-2.176-0.266-3.616-0.796-4.322c-0.531-0.705-1.277-1.058-2.24-1.058c-1.002,0-1.72,0.357-2.156,1.073
		C279.085,466.922,278.868,468.137,278.868,469.851z"/>
	<path fill="#BE1E2D" d="M294.769,475.576h1.434c0.112,0.237,0.168,0.481,0.168,0.731c0,0.231-0.043,0.393-0.129,0.484
		c-0.085,0.093-0.221,0.139-0.405,0.139h-5.558c-0.119-0.29-0.178-0.57-0.178-0.84c0-0.179,0.049-0.309,0.148-0.391
		c0.099-0.083,0.244-0.124,0.435-0.124h0.919c0.033-0.844,0.049-3.052,0.049-6.625c0-1.932-0.016-3.319-0.049-4.163h-1.315
		c-0.112-0.29-0.168-0.567-0.168-0.831c0-0.185,0.048-0.318,0.144-0.4s0.239-0.124,0.43-0.124h5.132c2.057,0,3.525,0.287,4.405,0.86
		c0.88,0.574,1.32,1.49,1.32,2.749c0,1.74-1.078,2.947-3.234,3.619c0.541,0.225,0.999,0.572,1.375,1.044
		c0.376,0.471,0.771,1.131,1.187,1.978c0.416,0.847,0.757,1.374,1.024,1.582c0.267,0.208,0.654,0.312,1.162,0.312
		c0.178,0.587,0.158,0.992-0.059,1.216c-0.218,0.225-0.768,0.337-1.651,0.337c-1.029,0-1.739-0.11-2.131-0.331
		c-0.392-0.222-0.747-0.894-1.063-2.018s-0.658-1.958-1.023-2.502s-0.869-0.815-1.508-0.815c-0.343,0-0.646,0.032-0.91,0.099
		C294.726,473.526,294.743,474.864,294.769,475.576z M294.72,469.851h0.801c0.851,0,1.501-0.16,1.953-0.479
		c0.451-0.319,0.677-0.829,0.677-1.527c0-0.903-0.223-1.548-0.667-1.934s-1.01-0.578-1.696-0.578c-0.416,0-0.755,0.032-1.019,0.099
		c-0.033,0.415-0.049,1.592-0.049,3.53V469.851z"/>
	<path fill="#BE1E2D" d="M308.82,475.279h0.238c2.208,0,3.961-0.26,5.26-0.781c0.291,0.436,0.436,0.907,0.436,1.414
		c0,0.363-0.135,0.623-0.405,0.781s-0.817,0.237-1.642,0.237l-8.188,0.01c-0.119-0.29-0.178-0.569-0.178-0.84
		c0-0.179,0.049-0.309,0.148-0.391c0.099-0.083,0.244-0.124,0.435-0.124h0.722c0.04-0.851,0.06-3.062,0.06-6.635
		c0-1.932-0.023-3.319-0.069-4.163h-1.118c-0.119-0.29-0.178-0.567-0.178-0.831c0-0.185,0.049-0.318,0.148-0.4
		c0.099-0.082,0.244-0.124,0.435-0.124h5.212c0.111,0.244,0.168,0.488,0.168,0.732c0,0.237-0.043,0.4-0.129,0.489
		s-0.221,0.134-0.406,0.134h-0.959c-0.033,0.844-0.049,2.234-0.049,4.173C308.762,472.527,308.781,474.634,308.82,475.279z"/>
	<path fill="#BE1E2D" d="M316.336,463.433h4.173c2.979,0,5.023,0.474,6.131,1.419c1.107,0.946,1.661,2.517,1.661,4.712
		c0,2.433-0.572,4.27-1.715,5.509c-1.145,1.239-3.084,1.858-5.82,1.858l-4.836,0.01c-0.118-0.29-0.178-0.569-0.178-0.84
		c0-0.179,0.05-0.309,0.148-0.391c0.1-0.083,0.244-0.124,0.436-0.124h0.722c0.04-0.851,0.06-3.062,0.06-6.635
		c0-1.932-0.02-3.319-0.06-4.163h-1.128c-0.118-0.29-0.178-0.567-0.178-0.831c0-0.185,0.05-0.318,0.148-0.4
		C316,463.475,316.145,463.433,316.336,463.433z M321.458,465.332c-0.475,0-0.887,0.032-1.235,0.099
		c-0.033,0.923-0.05,3.062-0.05,6.418c0,1.562,0.095,2.483,0.286,2.764s0.689,0.42,1.494,0.42c0.955,0,1.684-0.312,2.185-0.939
		c0.501-0.626,0.752-1.885,0.752-3.777c0-1.865-0.296-3.163-0.886-3.892C323.414,465.696,322.565,465.332,321.458,465.332z"/>
</g>
<g>
	<path fill="#262262" d="M285.591,482.29h2.274c0.473,0.908,0.929,1.749,1.367,2.523c0.438,0.773,0.887,1.733,1.347,2.878v-2.443
		c0-1.035-0.011-1.779-0.032-2.231h-0.599c-0.06-0.156-0.09-0.305-0.09-0.445c0-0.1,0.027-0.171,0.08-0.215
		c0.053-0.044,0.131-0.066,0.233-0.066h2.385c0.06,0.131,0.09,0.262,0.09,0.393c0,0.127-0.023,0.215-0.069,0.262
		c-0.046,0.048-0.12,0.072-0.223,0.072h-0.461c-0.014,0.452-0.021,1.197-0.021,2.236v3.557c0,0.336-0.039,0.548-0.116,0.637
		c-0.078,0.088-0.283,0.132-0.615,0.132c-0.661,0-1.035-0.024-1.124-0.074c-0.088-0.049-0.442-0.585-1.06-1.605
		c-0.619-1.021-1.189-2.163-1.712-3.425c0,2.432,0.009,3.873,0.027,4.325h0.551c0.06,0.128,0.09,0.259,0.09,0.393
		c0,0.124-0.023,0.21-0.069,0.26s-0.118,0.074-0.217,0.074h-2.359c-0.063-0.155-0.095-0.306-0.095-0.45
		c0-0.096,0.026-0.165,0.08-0.21c0.053-0.044,0.13-0.066,0.233-0.066h0.44c0.021-0.452,0.032-1.636,0.032-3.551
		c-0.004-1.035-0.016-1.779-0.037-2.231h-0.546c-0.063-0.156-0.095-0.305-0.095-0.445c0-0.1,0.026-0.171,0.08-0.215
		C285.411,482.312,285.488,482.29,285.591,482.29z"/>
	<path fill="#262262" d="M296.833,482.29h4.824c0.226,0,0.388,0.034,0.485,0.104c0.097,0.068,0.146,0.211,0.146,0.427
		c0,0.262-0.087,0.53-0.26,0.806c-0.742-0.301-1.693-0.451-2.852-0.451h-0.255c-0.021,0.347-0.032,1.052-0.032,2.115h2.672
		c0.06,0.188,0.09,0.382,0.09,0.583c0,0.12-0.021,0.201-0.063,0.241c-0.042,0.041-0.124,0.062-0.244,0.062h-2.455
		c0.003,1.36,0.014,2.182,0.032,2.465h0.44c1.191,0,2.135-0.14,2.831-0.419c0.156,0.233,0.233,0.485,0.233,0.758
		c0,0.194-0.072,0.334-0.217,0.419s-0.438,0.127-0.88,0.127l-4.712,0.005c-0.063-0.155-0.095-0.306-0.095-0.45
		c0-0.096,0.026-0.165,0.08-0.209c0.053-0.045,0.13-0.066,0.233-0.066h0.387c0.021-0.456,0.032-1.642,0.032-3.557
		c0-1.035-0.011-1.779-0.032-2.231h-0.604c-0.063-0.156-0.095-0.305-0.095-0.445c0-0.1,0.026-0.171,0.08-0.215
		C296.652,482.312,296.73,482.29,296.833,482.29z"/>
	<path fill="#262262" d="M313.985,482.29h2.131c0.063,0.131,0.095,0.262,0.095,0.393c0,0.127-0.022,0.215-0.068,0.262
		c-0.046,0.048-0.12,0.072-0.223,0.072h-0.255c-0.197,0.752-0.48,1.904-0.848,3.456c-0.368,1.551-0.629,2.465-0.784,2.74
		c-0.156,0.275-0.499,0.413-1.028,0.413c-0.626,0-0.97-0.02-1.031-0.059c-0.062-0.038-0.233-0.914-0.515-2.626
		c-0.28-1.712-0.43-2.568-0.447-2.568s-0.16,0.738-0.427,2.213c-0.268,1.476-0.479,2.352-0.634,2.627s-0.498,0.413-1.028,0.413
		c-0.562,0-0.873-0.02-0.933-0.059c-0.061-0.038-0.294-0.949-0.702-2.732c-0.408-1.782-0.734-3.056-0.979-3.818h-0.445
		c-0.06-0.156-0.09-0.305-0.09-0.445c0-0.1,0.026-0.171,0.079-0.215c0.054-0.044,0.131-0.066,0.233-0.066h2.635
		c0.06,0.131,0.09,0.262,0.09,0.393c0,0.127-0.022,0.215-0.068,0.262c-0.047,0.048-0.12,0.072-0.223,0.072h-0.26
		c0.038,0.452,0.19,1.412,0.455,2.881c0.266,1.468,0.432,2.202,0.499,2.202c0.066,0,0.265-0.949,0.594-2.847
		c0.328-1.897,0.521-2.865,0.58-2.904s0.464-0.059,1.217-0.059c0.265,0,0.447,0.052,0.548,0.156
		c0.102,0.104,0.309,1.072,0.623,2.905c0.314,1.832,0.505,2.748,0.57,2.748s0.22-0.727,0.464-2.179
		c0.243-1.452,0.378-2.421,0.402-2.904h-0.445c-0.063-0.156-0.096-0.305-0.096-0.445c0-0.1,0.027-0.171,0.08-0.215
		S313.883,482.29,313.985,482.29z"/>
	<path fill="#262262" d="M322.599,482.184c0.907,0,1.51,0.054,1.805,0.159c0.295,0.106,0.442,0.313,0.442,0.62
		c0,0.294-0.108,0.557-0.323,0.79c-0.816-0.367-1.525-0.551-2.126-0.551c-0.399,0-0.677,0.068-0.832,0.206s-0.233,0.338-0.233,0.6
		c0,0.311,0.098,0.542,0.292,0.694c0.194,0.151,0.586,0.314,1.177,0.487c0.742,0.194,1.313,0.44,1.715,0.737
		c0.4,0.296,0.61,0.78,0.628,1.452c0,0.763-0.275,1.329-0.824,1.698c-0.55,0.37-1.351,0.555-2.404,0.555
		c-0.763,0-1.326-0.057-1.688-0.17c-0.362-0.113-0.544-0.338-0.544-0.673c0-0.297,0.124-0.561,0.371-0.79
		c0.81,0.41,1.567,0.614,2.274,0.614c0.463,0,0.786-0.061,0.97-0.183s0.275-0.324,0.275-0.606c0-0.332-0.143-0.591-0.429-0.774
		c-0.287-0.184-0.759-0.369-1.416-0.557c-0.699-0.187-1.202-0.446-1.508-0.779c-0.306-0.332-0.458-0.758-0.458-1.277
		c0-0.71,0.251-1.263,0.755-1.659C321.021,482.382,321.715,482.184,322.599,482.184z"/>
</g>
<linearGradient id="SVGID_1_" gradientUnits="userSpaceOnUse" x1="257.7485" y1="485.8174" x2="267.563" y2="485.8174">
	<stop  offset="0" style="stop-color:#0062AF"/>
	<stop  offset="1" style="stop-color:#262262"/>
</linearGradient>
<polygon fill="url(#SVGID_1_)" points="262.686,489.891 257.749,489.891 262.625,481.744 267.563,481.744 "/>
<linearGradient id="SVGID_2_" gradientUnits="userSpaceOnUse" x1="264.9077" y1="485.8174" x2="274.7227" y2="485.8174">
	<stop  offset="0" style="stop-color:#0062AF"/>
	<stop  offset="1" style="stop-color:#262262"/>
</linearGradient>
<polygon fill="url(#SVGID_2_)" points="269.845,489.891 264.908,489.891 269.785,481.744 274.723,481.744 "/>
<linearGradient id="SVGID_3_" gradientUnits="userSpaceOnUse" x1="272.0674" y1="485.8174" x2="281.8818" y2="485.8174">
	<stop  offset="0" style="stop-color:#0062AF"/>
	<stop  offset="1" style="stop-color:#262262"/>
</linearGradient>
<polygon fill="url(#SVGID_3_)" points="277.005,489.891 272.067,489.891 276.944,481.744 281.882,481.744 "/>
</svg>
